# xmcd
#
# Track frame offsets: 
#        150
#        8950
#        27902
#        44051
#        57308
#        72087
#        88888
#        106190
#        124316
#        137746
#        154242
#        160761
#        167285
#        183454
#        193582
#        209950
#        229269
#
# Disc length: 3224 seconds
#
# Revision: 0
# Processed by: cddbd v1.5.2PL0 Copyright (c) Steve Scherf et al.
# Submitted via: ExactAudioCopyFreeDBPlugin 1.0
#
DISCID=f40c9611
DTITLE=Die Echten - Tapetenwechsel Live
DYEAR=2011
DGENRE=A Cappella Comedy
TTITLE0=Zum Geleit - Verhörer
TTITLE1=Die Echten Hören [Living On A Prayer;Bon Jovi]
TTITLE2=Kana wü mi, Kana hört mi [Do You Really Want to Hurt Me;Cultur
TTITLE2=e Club]
TTITLE3=Sellerie [Valerie;The Zutons]
TTITLE4=Walking mit Memphis [Walking in Memphis;Marc Cohn]
TTITLE5=Jugendliebe Heidrun [You Can Leave Your Hat On;Randy Newman]
TTITLE6=Bedroom Ants [Bad Romance;Lady Gaga]
TTITLE7=Gin Hi [Jeanny Part 1;Falco]
TTITLE8=Und wenn ein Wind Deinen Körper verlässt [Und wenn ein Lied;Sö
TTITLE8=hne Mannheims]
TTITLE9=Lagerfeuer
TTITLE10=Hennen [Männer;Grönemeyer]
TTITLE11=Hähne sind Schweine [Männer sind Schweine;Die Ärzte]
TTITLE12=Bigln [Beat It;Michael Jackson]
TTITLE13=Wia Haasst'a [Hot Stuff;Donna Summer]
TTITLE14=Mia Hom's G'Schofft [Long Train Running - The Doobie Brothers]
TTITLE15=Amoi no 17 Sein [Summer of '69;Bryan Adams]
TTITLE16=Und Dann Noch: Billig Jean unlive [Billie Jean;Michael Jackso
TTITLE16=n]
EXTD=
EXTT0=
EXTT1=
EXTT2=
EXTT3=
EXTT4=
EXTT5=
EXTT6=
EXTT7=
EXTT8=
EXTT9=
EXTT10=
EXTT11=
EXTT12=
EXTT13=
EXTT14=
EXTT15=
EXTT16=
PLAYORDER=
